<svg width="32" height="32" viewBox="0 0 32 32" fill="none" xmlns="http://www.w3.org/2000/svg">
<path fill-rule="evenodd" clip-rule="evenodd" d="M9.59548 6.09528C9.67487 5.80683 10.0813 5.79957 10.1709 6.085L12.2215 12.6142C12.2513 12.709 12.3261 12.7829 12.4212 12.8116L18.2746 14.5754C18.5535 14.6594 18.561 15.0516 18.2856 15.1463L12.0014 17.3071C11.9077 17.3393 11.836 17.4157 11.8097 17.5112L10.136 23.5924C10.0566 23.8808 9.65022 23.8881 9.56057 23.6026L7.50993 17.0734C7.48016 16.9786 7.4054 16.9047 7.31027 16.876L1.45695 15.1122C1.17804 15.0282 1.17049 14.636 1.44596 14.5413L7.73006 12.3805C7.82373 12.3483 7.89547 12.2719 7.92175 12.1764L9.59548 6.09528Z" fill="#1B97DB"/>
</svg>
