<svg width="38" height="39" viewBox="0 0 38 39" fill="none" xmlns="http://www.w3.org/2000/svg">
<path fill-rule="evenodd" clip-rule="evenodd" d="M20.4157 2.79813C20.4748 2.62159 20.7288 2.63494 20.7692 2.81671L23.7218 16.1305C23.735 16.1899 23.7767 16.2389 23.8332 16.2614L35.2543 20.807C35.4202 20.873 35.4039 21.1129 35.2306 21.1559L22.3726 24.3466C22.3137 24.3612 22.2658 24.404 22.2447 24.4608L17.8281 36.3251C17.7628 36.5005 17.5076 36.4773 17.4751 36.293L15.2071 23.4632C15.1962 23.4013 15.1543 23.3493 15.0962 23.3253L2.98556 18.3376C2.81828 18.2687 2.84086 18.0249 3.01795 17.9879L16.15 15.2444C16.2139 15.231 16.2659 15.1848 16.2866 15.1229L20.4157 2.79813Z" fill="#F08922"/>
</svg>
